<svg xmlns="http://www.w3.org/2000/svg" width="440.934" height="346.583" viewBox="0 0 440.934 346.583">
  <g id="Computer_2" data-name="Computer 2" transform="translate(-318.533 -1998.5)">
    <g id="Rec_12" data-name="Rec 12">
      <path id="Rectangle_49" data-name="Rectangle 49" d="M0,0H195.5A9.5,9.5,0,0,1,205,9.5v0a9.5,9.5,0,0,1-9.5,9.5H0a0,0,0,0,1,0,0V0A0,0,0,0,1,0,0Z" transform="translate(717.5 2260.5) rotate(-90)" fill="#fe5aa3"/>
    </g>
    <g id="Rec_11" data-name="Rec 11">
      <path id="Rectangle_50" data-name="Rectangle 50" d="M0,0H168.5A9.5,9.5,0,0,1,178,9.5v0a9.5,9.5,0,0,1-9.5,9.5H0a0,0,0,0,1,0,0V0A0,0,0,0,1,0,0Z" transform="translate(689.5 2260.5) rotate(-90)" fill="#7b67fe"/>
    </g>
    <g id="Rec_10" data-name="Rec 10">
      <path id="Rectangle_48" data-name="Rectangle 48" d="M0,0H209.5A9.5,9.5,0,0,1,219,9.5v0a9.5,9.5,0,0,1-9.5,9.5H0a0,0,0,0,1,0,0V0A0,0,0,0,1,0,0Z" transform="translate(661.5 2260.5) rotate(-90)" fill="#d0f2ec"/>
    </g>
    <g id="Rec_9" data-name="Rec 9">
      <path id="Rectangle_53" data-name="Rectangle 53" d="M0,0H132.5A9.5,9.5,0,0,1,142,9.5v0a9.5,9.5,0,0,1-9.5,9.5H0a0,0,0,0,1,0,0V0A0,0,0,0,1,0,0Z" transform="translate(633.5 2260.5) rotate(-90)" fill="#f876e5"/>
    </g>
    <g id="Rec_8" data-name="Rec 8">
      <path id="Rectangle_84" data-name="Rectangle 84" d="M0,0H49.5A9.5,9.5,0,0,1,59,9.5v0A9.5,9.5,0,0,1,49.5,19H0a0,0,0,0,1,0,0V0A0,0,0,0,1,0,0Z" transform="translate(605.5 2260.5) rotate(-90)" fill="#334ac0"/>
    </g>
    <g id="Rec_7" data-name="Rec 7">
      <path id="Rectangle_55" data-name="Rectangle 55" d="M0,0H102.5A9.5,9.5,0,0,1,112,9.5v0a9.5,9.5,0,0,1-9.5,9.5H0a0,0,0,0,1,0,0V0A0,0,0,0,1,0,0Z" transform="translate(581.5 2260.5) rotate(-90)" fill="#d0f2ec"/>
    </g>
    <g id="Rec_6" data-name="Rec 6">
      <path id="Rectangle_51" data-name="Rectangle 51" d="M0,0H154.5A9.5,9.5,0,0,1,164,9.5v0a9.5,9.5,0,0,1-9.5,9.5H0a0,0,0,0,1,0,0V0A0,0,0,0,1,0,0Z" transform="translate(553.5 2260.5) rotate(-90)" fill="#57f2f2"/>
    </g>
    <g id="Rec_5" data-name="Rec 5">
      <path id="Rectangle_57" data-name="Rectangle 57" d="M0,0H59.5A9.5,9.5,0,0,1,69,9.5v0A9.5,9.5,0,0,1,59.5,19H0a0,0,0,0,1,0,0V0A0,0,0,0,1,0,0Z" transform="translate(525.5 2260.5) rotate(-90)" fill="#024959"/>
    </g>
    <g id="Rec_4" data-name="Rec 4">
      <path id="Rectangle_83" data-name="Rectangle 83" d="M9.5,0h0A9.5,9.5,0,0,1,19,9.5V59a0,0,0,0,1,0,0H0a0,0,0,0,1,0,0V9.5A9.5,9.5,0,0,1,9.5,0Z" transform="translate(424.5 2201.5)" fill="#41ccb4"/>
    </g>
    <g id="Rec_3" data-name="Rec 3">
      <path id="Rec_3-2" data-name="Rec 3" d="M9.5,0h0A9.5,9.5,0,0,1,19,9.5V112a0,0,0,0,1,0,0H0a0,0,0,0,1,0,0V9.5A9.5,9.5,0,0,1,9.5,0Z" transform="translate(396.5 2148.5)" fill="#f44f91"/>
    </g>
    <g id="Rec_2" data-name="Rec 2">
      <path id="Rectangle_81" data-name="Rectangle 81" d="M0,0H19a0,0,0,0,1,0,0V132.5A9.5,9.5,0,0,1,9.5,142h0A9.5,9.5,0,0,1,0,132.5V0A0,0,0,0,1,0,0Z" transform="translate(387.5 2260.5) rotate(180)" fill="#57f2f2"/>
    </g>
    <g id="Rec_1" data-name="Rec 1">
      <path id="Rectangle_80" data-name="Rectangle 80" d="M9.5,0h0A9.5,9.5,0,0,1,19,9.5V69a0,0,0,0,1,0,0H0a0,0,0,0,1,0,0V9.5A9.5,9.5,0,0,1,9.5,0Z" transform="translate(340.5 2191.5)" fill="#599ffe"/>
    </g>
    <rect id="Rectangle_60" data-name="Rectangle 60" width="63.538" height="59.303" transform="translate(507.231 2258.576)" fill="#fff" stroke="#000" stroke-miterlimit="10" stroke-width="3"/>
    <rect id="Rectangle_61" data-name="Rectangle 61" width="146.703" height="25.703" rx="7" transform="translate(465.648 2317.879)" stroke="#000" stroke-miterlimit="10" stroke-width="3"/>
    <rect id="Rectangle_47" data-name="Rectangle 47" width="435.934" height="257.576" rx="24" transform="translate(321.033 2001)" fill="none" stroke="#000" stroke-miterlimit="10" stroke-width="5"/>
  </g>
</svg>
