<svg xmlns="http://www.w3.org/2000/svg" width="238.385" height="462.802" viewBox="0 0 238.385 462.802">
  <g id="Phone_1" data-name="Phone 1" transform="translate(-1371.808 -1254.599)">
    <rect id="Rectangle_46" data-name="Rectangle 46" width="131.414" height="5.128" transform="translate(1417.293 1276.371)"/>
    <circle id="Ellipse_15" data-name="Ellipse 15" cx="2.63" cy="2.63" r="2.63" transform="translate(1565.104 1276.238)"/>
    <path id="Rectangle_36" data-name="Rectangle 36" d="M0,0H184.5A9.5,9.5,0,0,1,194,9.5v0a9.5,9.5,0,0,1-9.5,9.5H0a0,0,0,0,1,0,0V0A0,0,0,0,1,0,0Z" transform="translate(1374 1327)" fill="#57f2f2"/>
    <path id="Rectangle_37" data-name="Rectangle 37" d="M0,0H97.5A9.5,9.5,0,0,1,107,9.5v0A9.5,9.5,0,0,1,97.5,19H0a0,0,0,0,1,0,0V0A0,0,0,0,1,0,0Z" transform="translate(1374 1355)" fill="#31bac0"/>
    <path id="Rectangle_38" data-name="Rectangle 38" d="M0,0H112.5A9.5,9.5,0,0,1,122,9.5v0a9.5,9.5,0,0,1-9.5,9.5H0a0,0,0,0,1,0,0V0A0,0,0,0,1,0,0Z" transform="translate(1374 1383)" fill="#d0f2ec"/>
    <path id="Rectangle_39" data-name="Rectangle 39" d="M0,0H44.5A9.5,9.5,0,0,1,54,9.5v0A9.5,9.5,0,0,1,44.5,19H0a0,0,0,0,1,0,0V0A0,0,0,0,1,0,0Z" transform="translate(1374 1411)" fill="#026873"/>
    <path id="Rectangle_40" data-name="Rectangle 40" d="M0,0H97.5A9.5,9.5,0,0,1,107,9.5v0A9.5,9.5,0,0,1,97.5,19H0a0,0,0,0,1,0,0V0A0,0,0,0,1,0,0Z" transform="translate(1374 1439)" fill="#fe5aa2"/>
    <path id="Rectangle_41" data-name="Rectangle 41" d="M0,0H133.5A9.5,9.5,0,0,1,143,9.5v0a9.5,9.5,0,0,1-9.5,9.5H0a0,0,0,0,1,0,0V0A0,0,0,0,1,0,0Z" transform="translate(1374 1504)" fill="#d0f2ec"/>
    <path id="Rectangle_42" data-name="Rectangle 42" d="M0,0H158.5A9.5,9.5,0,0,1,168,9.5v0a9.5,9.5,0,0,1-9.5,9.5H0a0,0,0,0,1,0,0V0A0,0,0,0,1,0,0Z" transform="translate(1374 1532)" fill="#57f2f2"/>
    <path id="Rectangle_43" data-name="Rectangle 43" d="M0,0H83.5A9.5,9.5,0,0,1,93,9.5v0A9.5,9.5,0,0,1,83.5,19H0a0,0,0,0,1,0,0V0A0,0,0,0,1,0,0Z" transform="translate(1374 1560)" fill="#026873"/>
    <path id="Rectangle_44" data-name="Rectangle 44" d="M0,0H39.5A9.5,9.5,0,0,1,49,9.5v0A9.5,9.5,0,0,1,39.5,19H0a0,0,0,0,1,0,0V0A0,0,0,0,1,0,0Z" transform="translate(1374 1588)" fill="#35e2cf"/>
    <path id="Rectangle_45" data-name="Rectangle 45" d="M0,0H130.5A9.5,9.5,0,0,1,140,9.5v0a9.5,9.5,0,0,1-9.5,9.5H0a0,0,0,0,1,0,0V0A0,0,0,0,1,0,0Z" transform="translate(1374 1616)" fill="#797ab9"/>
    <rect id="Rectangle_35" data-name="Rectangle 35" width="233.385" height="457.802" rx="15.423" transform="translate(1374.308 1257.099)" fill="none" stroke="#000" stroke-miterlimit="10" stroke-width="5"/>
  </g>
</svg>
